<svg width="140" height="109" viewBox="0 0 140 109" fill="none" xmlns="http://www.w3.org/2000/svg">
<path d="M51.6183 0.51162L55.1374 5.9889C30.8904 21.9017 18.7689 37.8183 18.7689 53.7272C18.7689 61.8153 22.288 66.5101 29.3264 67.8116L45.753 52.5496C50.964 54.378 55.7259 57.7054 60.0271 62.528C64.3283 67.3584 66.4808 73.5523 66.4808 81.1136C66.4808 88.6749 63.4804 95.1399 57.4874 100.482C51.4866 105.831 43.6043 108.5 33.8289 108.5C24.0534 108.5 15.9698 105.173 9.58188 98.5216C3.19009 91.8706 0 82.6747 0 70.9338C0 45.3719 17.2087 21.8939 51.6221 0.5L51.6183 0.51162ZM125.137 0.51162L128.657 5.9889C104.41 21.9017 92.288 37.8183 92.288 53.7272C92.288 61.8153 95.8072 66.5101 102.846 67.8116L119.272 52.5496C124.483 54.378 129.245 57.7054 133.546 62.528C137.847 67.3584 140 73.5523 140 81.1136C140 88.6749 137 95.1399 131.007 100.482C125.006 105.831 117.124 108.5 107.348 108.5C97.5726 108.5 89.489 105.173 83.101 98.5216C76.7093 91.8706 73.5192 82.6747 73.5192 70.9338C73.5192 45.3719 90.7278 21.8939 125.141 0.5L125.137 0.51162Z" fill="#F7FBEA"/>
</svg>
