<svg width="84" height="19" viewBox="0 0 84 19" fill="none" xmlns="http://www.w3.org/2000/svg">
<g clip-path="url(#clip0_535_1147)">
<path d="M83.0236 0.5H0.977051V18.5H83.0236V0.5Z" fill="#FFCC00"/>
<path d="M0.985107 12.9463H12.0806L11.4745 13.7661H0.985107V12.9463Z" fill="#D40511"/>
<path d="M0.985107 11.4248H13.2079L12.6005 12.2438H0.985107V11.4248Z" fill="#D40511"/>
<path d="M0.985107 14.4688H10.9542L10.3505 15.2827H0.985107V14.4688Z" fill="#D40511"/>
<path d="M83.0298 13.7657H71.9778L72.5835 12.9463H83.0298V13.7657Z" fill="#D40511"/>
<path d="M83.0285 15.2827L70.8525 15.284L71.4558 14.4688H83.0285V15.2827Z" fill="#D40511"/>
<path d="M73.7089 11.4248H83.0292V12.2442L73.1028 12.245L73.7089 11.4248Z" fill="#D40511"/>
<path d="M11.7195 15.2815L16.9846 8.16992H23.5183C24.2405 8.16992 24.231 8.4425 23.8783 8.91796C23.5199 9.4007 22.91 10.2308 22.5449 10.7209C22.3596 10.9698 22.0245 11.4234 23.1347 11.4234H31.8877C31.1597 12.4147 28.7984 15.2815 24.5587 15.2815H11.7195Z" fill="#D40511"/>
<path d="M41.8798 11.4229L39.0249 15.2815H31.4932C31.4932 15.2815 34.3469 11.4234 34.3494 11.4234L41.8798 11.4229Z" fill="#D40511"/>
<path d="M52.7692 11.4229L49.9127 15.281H42.3838C42.3838 15.281 45.2378 11.4229 45.2403 11.4229H52.7692Z" fill="#D40511"/>
<path d="M55.2179 11.423C55.2179 11.423 54.6678 12.1711 54.4004 12.53C53.4547 13.8007 54.2905 15.281 57.3771 15.281H69.4686L72.3246 11.4229L55.2179 11.423Z" fill="#D40511"/>
<path d="M15.419 3.74805L12.7976 7.28868H27.0841C27.8062 7.28868 27.7967 7.56126 27.4438 8.03667C27.0854 8.51887 26.4854 9.3585 26.1204 9.84856C25.9351 10.097 25.6 10.5505 26.7102 10.5505H32.5524C32.5524 10.5505 33.4943 9.27643 34.2834 8.21146C35.3573 6.76262 34.3765 3.74805 30.5375 3.74805H15.419Z" fill="#D40511"/>
<path d="M53.4303 10.5505H35.0088L40.0463 3.74805H47.5753L44.6886 7.64823H48.0492L50.938 3.74805H58.4661L53.4303 10.5505Z" fill="#D40511"/>
<path d="M68.8907 3.74805L63.8543 10.5505H55.876C55.876 10.5505 60.9141 3.74805 60.9166 3.74805H68.8907Z" fill="#D40511"/>
</g>
<defs>
<clipPath id="clip0_535_1147">
<rect width="82.0465" height="18" fill="white" transform="translate(0.976807 0.5)"/>
</clipPath>
</defs>
</svg>
