<svg width="20" height="26" viewBox="0 0 20 26" fill="none" xmlns="http://www.w3.org/2000/svg">
<path d="M14.6295 0.5C14.6295 0.5 16.9802 5.90313 6.90549 9.5324C1.43112 11.5039 -2.77351 16.557 2.24682 24.3628C2.66259 20.8737 4.44536 13.1808 12.1112 11.4253C12.1112 11.4253 4.9763 13.932 4.34603 25.2784C8.01223 25.762 16.6106 26.087 19.1634 19.0765C22.5344 9.81402 14.6295 0.5 14.6295 0.5Z" fill="white"/>
<path d="M4.34935 25.2312C12.1324 22.3128 17.7955 15.4762 18.5771 7.31484C16.986 3.2824 14.6295 0.5 14.6295 0.5C14.6295 0.5 16.9802 5.90313 6.90549 9.5324C1.43112 11.5039 -2.77351 16.557 2.24682 24.3628C2.66259 20.8737 4.44536 13.1808 12.1112 11.4253C12.1108 11.4254 4.9971 13.9258 4.34935 25.2312Z" fill=" #8AB934
"/>
</svg>
