<svg width="256" height="19" viewBox="0 0 256 19" fill="none" xmlns="http://www.w3.org/2000/svg">
<g clip-path="url(#clip0_535_1171)">
<path opacity="0.07" d="M26.2266 0.5H2.22656C0.951562 0.5 -0.0234375 1.475 -0.0234375 2.75V16.25C-0.0234375 17.525 1.02656 18.5 2.22656 18.5H26.2266C27.5016 18.5 28.4766 17.525 28.4766 16.25V2.75C28.4766 1.475 27.4266 0.5 26.2266 0.5Z" fill="black"/>
<path d="M26.2266 1.25C27.0516 1.25 27.7266 1.925 27.7266 2.75V16.25C27.7266 17.075 27.0516 17.75 26.2266 17.75H2.22656C1.40156 17.75 0.726562 17.075 0.726562 16.25V2.75C0.726562 1.925 1.40156 1.25 2.22656 1.25H26.2266Z" fill="white"/>
<path d="M17.9016 6.725C18.0516 5.975 17.9016 5.45 17.4516 5C17.0016 4.475 16.1766 4.25 15.1266 4.25H12.0516C11.8266 4.25 11.6766 4.4 11.6016 4.625L10.4766 12.2C10.4766 12.35 10.5516 12.5 10.7016 12.5H12.7266L13.0266 9.95L14.3766 8.3L17.9016 6.725Z" fill="#003087"/>
<path d="M17.8969 6.72461L17.7469 6.87461C17.3719 8.97461 16.0969 9.72461 14.2969 9.72461H13.4719C13.2469 9.72461 13.0969 9.87461 13.0219 10.0996L12.5719 13.0246L12.4219 13.7746C12.4219 13.9246 12.4969 14.0746 12.6469 14.0746H14.2219C14.4469 14.0746 14.5969 13.9246 14.5969 13.7746V13.6996L14.8969 11.8996V11.8246C14.8969 11.6746 15.1219 11.5246 15.2719 11.5246H15.4969C17.0719 11.5246 18.2719 10.9246 18.5719 9.12461C18.7219 8.37461 18.6469 7.77461 18.2719 7.32461C18.1969 6.94961 18.0469 6.79961 17.8969 6.72461Z" fill="#3086C8"/>
<path d="M17.4484 6.57461C17.3734 6.49961 17.2984 6.49961 17.2234 6.49961C17.1484 6.49961 17.0734 6.49961 16.9984 6.42461C16.7734 6.34961 16.4734 6.34961 16.1734 6.34961H13.9234C13.8484 6.34961 13.7734 6.34961 13.7734 6.42461C13.6234 6.49961 13.5484 6.57461 13.5484 6.72461L13.0234 10.0246V10.0996C13.0234 9.87461 13.2484 9.72461 13.4734 9.72461H14.4484C16.3234 9.72461 17.5234 8.97461 17.8984 6.87461V6.72461C17.8234 6.64961 17.6734 6.57461 17.5234 6.57461H17.4484Z" fill="#012169"/>
</g>
<g clip-path="url(#clip1_535_1171)">
<path opacity="0.07" d="M58.7266 0.5H34.7266C33.4516 0.5 32.4766 1.475 32.4766 2.75V16.25C32.4766 17.525 33.5266 18.5 34.7266 18.5H58.7266C60.0016 18.5 60.9766 17.525 60.9766 16.25V2.75C60.9766 1.475 59.9266 0.5 58.7266 0.5Z" fill="black"/>
<path d="M58.7266 1.25C59.5516 1.25 60.2266 1.925 60.2266 2.75V16.25C60.2266 17.075 59.5516 17.75 58.7266 17.75H34.7266C33.9016 17.75 33.2266 17.075 33.2266 16.25V2.75C33.2266 1.925 33.9016 1.25 34.7266 1.25H58.7266Z" fill="white"/>
<path d="M43.7266 14.75C46.6261 14.75 48.9766 12.3995 48.9766 9.5C48.9766 6.60051 46.6261 4.25 43.7266 4.25C40.8271 4.25 38.4766 6.60051 38.4766 9.5C38.4766 12.3995 40.8271 14.75 43.7266 14.75Z" fill="#EB001B"/>
<path d="M49.7266 14.75C52.6261 14.75 54.9766 12.3995 54.9766 9.5C54.9766 6.60051 52.6261 4.25 49.7266 4.25C46.8271 4.25 44.4766 6.60051 44.4766 9.5C44.4766 12.3995 46.8271 14.75 49.7266 14.75Z" fill="#F79E1B"/>
<path d="M48.9766 9.49961C48.9766 7.69961 48.0766 6.12461 46.7266 5.22461C45.3766 6.19961 44.4766 7.77461 44.4766 9.49961C44.4766 11.2246 45.3766 12.8746 46.7266 13.7746C48.0766 12.8746 48.9766 11.2996 48.9766 9.49961Z" fill="#FF5F00"/>
</g>
<g clip-path="url(#clip2_535_1171)">
<path opacity="0.07" d="M91.2266 0.5H67.2266C65.9516 0.5 64.9766 1.475 64.9766 2.75V16.25C64.9766 17.525 66.0266 18.5 67.2266 18.5H91.2266C92.5016 18.5 93.4766 17.525 93.4766 16.25V2.75C93.4766 1.475 92.4266 0.5 91.2266 0.5Z" fill="black"/>
<path d="M91.2266 1.25C92.0516 1.25 92.7266 1.925 92.7266 2.75V16.25C92.7266 17.075 92.0516 17.75 91.2266 17.75H67.2266C66.4016 17.75 65.7266 17.075 65.7266 16.25V2.75C65.7266 1.925 66.4016 1.25 67.2266 1.25H91.2266Z" fill="white"/>
<path d="M86.2016 8.075H85.9766C85.6766 8.825 85.4516 9.2 85.2266 10.325H86.6516C86.4266 9.2 86.4266 8.675 86.2016 8.075ZM88.3766 12.5H87.1016C87.0266 12.5 87.0266 12.5 86.9516 12.425L86.8016 11.75L86.7266 11.6H84.9266C84.8516 11.6 84.7766 11.6 84.7766 11.75L84.5516 12.425C84.5516 12.5 84.4766 12.5 84.4766 12.5H82.9016L83.0516 12.125L85.2266 7.025C85.2266 6.65 85.4516 6.5 85.8266 6.5H86.9516C87.0266 6.5 87.1016 6.5 87.1016 6.65L88.1516 11.525C88.2266 11.825 88.3016 12.05 88.3016 12.35C88.3766 12.425 88.3766 12.425 88.3766 12.5ZM78.3266 12.275L78.6266 10.925C78.7016 10.925 78.7766 11 78.7766 11C79.3016 11.225 79.8266 11.375 80.3516 11.3C80.5016 11.3 80.7266 11.225 80.8766 11.15C81.2516 11 81.2516 10.625 80.9516 10.325C80.8016 10.175 80.5766 10.1 80.3516 9.95C80.0516 9.8 79.7516 9.65 79.5266 9.425C78.6266 8.675 78.9266 7.625 79.4516 7.1C79.9016 6.8 80.1266 6.5 80.7266 6.5C81.6266 6.5 82.6016 6.5 83.0516 6.65H83.1266C83.0516 7.1 82.9766 7.475 82.8266 7.925C82.4516 7.775 82.0766 7.625 81.7016 7.625C81.4766 7.625 81.2516 7.625 81.0266 7.7C80.8766 7.7 80.8016 7.775 80.7266 7.85C80.5766 8 80.5766 8.225 80.7266 8.375L81.1016 8.675C81.4016 8.825 81.7016 8.975 81.9266 9.125C82.3016 9.35 82.6766 9.725 82.7516 10.175C82.9016 10.85 82.6766 11.45 82.0766 11.9C81.7016 12.2 81.5516 12.35 81.0266 12.35C79.9766 12.35 79.1516 12.425 78.4766 12.2C78.4016 12.35 78.4016 12.35 78.3266 12.275ZM75.7016 12.5C75.7766 11.975 75.7766 11.975 75.8516 11.75C76.2266 10.1 76.6016 8.375 76.9016 6.725C76.9766 6.575 76.9766 6.5 77.1266 6.5H78.4766C78.3266 7.4 78.1766 8.075 77.9516 8.9C77.7266 10.025 77.5016 11.15 77.2016 12.275C77.2016 12.425 77.1266 12.425 76.9766 12.425M68.7266 6.65C68.7266 6.575 68.8766 6.5 68.9516 6.5H71.5016C71.8766 6.5 72.1766 6.725 72.2516 7.1L72.9266 10.4C72.9266 10.475 72.9266 10.475 73.0016 10.55C73.0016 10.475 73.0766 10.475 73.0766 10.475L74.6516 6.65C74.5766 6.575 74.6516 6.5 74.7266 6.5H76.3016C76.3016 6.575 76.3016 6.575 76.2266 6.65L73.9016 12.125C73.8266 12.275 73.8266 12.35 73.7516 12.425C73.6766 12.5 73.5266 12.425 73.3766 12.425H72.2516C72.1766 12.425 72.1016 12.425 72.1016 12.275L70.9016 7.625C70.7516 7.475 70.5266 7.25 70.2266 7.175C69.7766 6.95 68.9516 6.8 68.8016 6.8L68.7266 6.65Z" fill="#142688"/>
</g>
<g clip-path="url(#clip3_535_1171)">
<path opacity="0.07" d="M123.727 0.5H99.7266C98.4516 0.5 97.4766 1.475 97.4766 2.75V16.25C97.4766 17.525 98.5266 18.5 99.7266 18.5H123.727C125.002 18.5 125.977 17.525 125.977 16.25V2.75C125.977 1.475 124.927 0.5 123.727 0.5Z" fill="black"/>
<path d="M123.727 1.25C124.552 1.25 125.227 1.925 125.227 2.75V16.25C125.227 17.075 124.552 17.75 123.727 17.75H99.7266C98.9016 17.75 98.2266 17.075 98.2266 16.25V2.75C98.2266 1.925 98.9016 1.25 99.7266 1.25H123.727Z" fill="#006FCF"/>
<path d="M113.984 15.4515V9.13574L125.225 9.14549V10.89L123.926 12.279L125.225 13.6792V15.4605H123.151L122.048 14.244L120.953 15.465L113.984 15.45V15.4515Z" fill="white"/>
<path d="M114.734 14.7595V9.83203H118.913V10.9668H116.087V11.7378H118.846V12.8538H116.087V13.6113H118.913V14.7595H114.734Z" fill="#006FCF"/>
<path d="M118.891 14.7593L121.203 12.2926L118.891 9.83105H120.68L122.093 11.3933L123.511 9.8318H125.223V9.87005L122.96 12.2926L125.223 14.6903V14.7601H123.493L122.055 13.1828L120.631 14.7608H118.891V14.7593Z" fill="#006FCF"/>
<path d="M114.509 3.53027H117.22L118.171 5.69102V3.53027H121.516L122.094 5.14952L122.672 3.53027H125.227V9.84602H111.727L114.509 3.53027Z" fill="white"/>
<path d="M115.015 4.21582L112.828 9.14032H114.328L114.741 8.15407H116.976L117.388 9.14032H118.926L116.748 4.21582H115.015ZM115.203 7.04857L115.859 5.48107L116.514 7.04857H115.203Z" fill="#006FCF"/>
<path d="M118.906 9.14009V4.21484L121.015 4.22234L122.101 7.25009L123.193 4.21559H125.221V9.13934L123.915 9.15134V5.76884L122.683 9.13934H121.49L120.233 5.75759V9.14009H118.907H118.906Z" fill="#006FCF"/>
</g>
<g clip-path="url(#clip4_535_1171)">
<path fill-rule="evenodd" clip-rule="evenodd" d="M156.227 0.500977H132.227C130.952 0.500977 129.977 1.47598 129.977 2.75098V16.251C129.977 17.526 131.027 18.501 132.227 18.501H156.227C157.502 18.501 158.477 17.526 158.477 16.251V2.75098C158.477 1.47598 157.427 0.500977 156.227 0.500977Z" fill="#FFB3C7"/>
<path fill-rule="evenodd" clip-rule="evenodd" d="M156.227 1.25098C157.052 1.25098 157.727 1.92598 157.727 2.75098V16.251C157.727 17.076 157.052 17.751 156.227 17.751H132.227C131.402 17.751 130.727 17.076 130.727 16.251V2.75098C130.727 1.92598 131.402 1.25098 132.227 1.25098H156.227Z" fill="#FFB3C7"/>
<path d="M155.564 10.389C155.199 10.389 154.903 10.689 154.903 11.058C154.903 11.4277 155.199 11.7277 155.564 11.7277C155.93 11.7277 156.227 11.4277 156.227 11.058C156.227 10.8815 156.158 10.7119 156.034 10.5864C155.91 10.461 155.741 10.39 155.564 10.389ZM153.387 9.87148C153.387 9.36448 152.96 8.95423 152.432 8.95423C151.904 8.95423 151.476 9.36448 151.476 9.87073C151.476 10.377 151.904 10.788 152.432 10.788C152.96 10.788 153.387 10.377 153.387 9.87073V9.87148ZM153.391 8.08948H154.445V11.652H153.391V11.4247C153.084 11.6374 152.719 11.7512 152.345 11.751C151.319 11.751 150.487 10.9095 150.487 9.87073C150.487 8.83273 151.319 7.99123 152.345 7.99123C152.733 7.99123 153.092 8.11123 153.391 8.31748V8.08948ZM144.951 8.55373V8.08948H143.871V11.652H144.953V9.98923C144.953 9.42748 145.555 9.12673 145.973 9.12673H145.985V8.09023C145.557 8.09023 145.163 8.27548 144.951 8.55373ZM142.262 9.87073C142.262 9.36448 141.834 8.95423 141.306 8.95423C140.779 8.95423 140.351 9.36448 140.351 9.87073C140.351 10.377 140.778 10.788 141.306 10.788C141.834 10.788 142.262 10.377 142.262 9.87073ZM142.265 8.08948H143.32V11.652H142.265V11.4247C141.958 11.6375 141.593 11.7514 141.219 11.751C140.193 11.751 139.361 10.9095 139.361 9.87073C139.361 8.83273 140.193 7.99123 141.219 7.99123C141.607 7.99123 141.967 8.11123 142.265 8.31748L142.265 8.08948ZM148.613 7.99348C148.192 7.99348 147.793 8.12623 147.527 8.49073V8.08948H146.477V11.652H147.539V9.77998C147.539 9.23848 147.899 8.97298 148.331 8.97298C148.794 8.97298 149.06 9.25348 149.06 9.77248V11.6527H150.114V9.38698C150.114 8.55748 149.462 7.99348 148.613 7.99348ZM137.825 11.6535H138.929V6.50098H137.825V11.652V11.6535ZM132.977 11.6535H134.145V6.50098H132.977V11.6535ZM137.064 6.50098C137.067 7.04314 136.963 7.58056 136.758 8.08247C136.553 8.58439 136.251 9.04093 135.869 9.42598L137.485 11.6535H136.041L134.285 9.23248L134.738 8.88898C135.108 8.61057 135.407 8.24967 135.613 7.83508C135.818 7.42048 135.924 6.96364 135.921 6.50098H137.064Z" fill="#0A0B09"/>
</g>
<g clip-path="url(#clip5_535_1171)">
<path opacity="0.07" d="M188.727 0.5H164.727C163.452 0.5 162.477 1.475 162.477 2.75V16.25C162.477 17.525 163.527 18.5 164.727 18.5H188.727C190.002 18.5 190.977 17.525 190.977 16.25V2.75C190.977 1.475 189.927 0.5 188.727 0.5Z" fill="black"/>
<path d="M188.727 1.25C189.552 1.25 190.227 1.925 190.227 2.75V16.25C190.227 17.075 189.552 17.75 188.727 17.75H164.727C163.902 17.75 163.227 17.075 163.227 16.25V2.75C163.227 1.925 163.902 1.25 164.727 1.25H188.727Z" fill="white"/>
<path d="M187.643 15.5H164.727L166.468 4.25H189.477L187.643 15.5Z" fill="#393A41"/>
<path d="M172.314 8C171.261 8 170.461 8.93225 170.461 10.0438C170.461 11.0488 171.117 11.7492 172.011 11.7492C173.063 11.7492 173.857 10.7908 173.857 9.67925C173.863 8.6675 173.207 8 172.314 8ZM172.077 10.8035C171.674 10.8035 171.393 10.4862 171.393 9.9965C171.393 9.45425 171.741 8.939 172.242 8.939C172.644 8.939 172.926 9.26975 172.926 9.7595C172.932 10.3077 172.58 10.8035 172.077 10.8035ZM178.647 8C177.595 8 176.801 8.93225 176.801 10.0438C176.801 11.0488 177.457 11.7492 178.35 11.7492C179.403 11.7492 180.198 10.7908 180.198 9.67925C180.204 8.6675 179.547 8 178.648 8H178.647ZM178.416 10.8035C178.014 10.8035 177.732 10.4862 177.732 9.9965C177.732 9.45425 178.08 8.939 178.582 8.939C178.983 8.939 179.265 9.26975 179.265 9.7595C179.265 10.3077 178.919 10.8035 178.416 10.8035ZM183.296 9.1835C183.296 8.5085 182.86 8.0795 182.066 8.0795H180.952L180.462 11.6697H181.399L181.554 10.5388H181.598L182.093 11.6697H183.168L182.48 10.4128C182.993 10.2013 183.295 9.74525 183.295 9.18425L183.296 9.1835ZM181.796 9.77975H181.659L181.763 9.0245H181.89C182.182 9.0245 182.336 9.131 182.336 9.362C182.336 9.63425 182.116 9.77975 181.796 9.77975ZM169.386 9.51425C169.028 9.29525 168.95 9.24275 168.95 9.1235C168.95 8.97875 169.092 8.906 169.286 8.906C169.512 8.906 169.854 8.93825 170.19 9.3215C170.271 9.0215 170.406 8.73875 170.587 8.489C170.115 8.16575 169.672 8 169.27 8C168.471 8 168.008 8.51525 168.008 9.137C168.008 9.67325 168.343 9.95075 168.741 10.196C169.099 10.4135 169.187 10.4862 169.187 10.619C169.187 10.7645 169.038 10.844 168.84 10.844C168.498 10.844 168.1 10.586 167.864 10.3213L167.727 11.3195C168.039 11.603 168.442 11.756 168.857 11.75C169.684 11.75 170.131 11.2467 170.131 10.6047C170.131 10.076 169.845 9.79175 169.386 9.51425H169.386ZM176.333 9.65225H175.23L175.318 9.0245H176.497C176.647 8.65625 176.882 8.33225 177.181 8.0795H175.251C174.822 8.0795 174.458 8.42975 174.396 8.906L174.022 11.6765H174.96L175.114 10.5455H176.228L176.31 9.9305C176.316 9.8315 176.322 9.74525 176.333 9.653V9.65225ZM183.317 8.08025C183.57 8.31125 183.725 8.63525 183.758 9.02525H184.541L184.183 11.6697H185.12L185.478 9.0245H186.349L186.476 8.0795H183.317V8.08025Z" fill="#EDEDED"/>
</g>
<g clip-path="url(#clip6_535_1171)">
<path d="M221.723 0.954102H196.728C196.011 0.954102 195.43 1.53515 195.43 2.25192V16.7485C195.43 17.4653 196.011 18.0463 196.728 18.0463H221.723C222.44 18.0463 223.021 17.4653 223.021 16.7485V2.25192C223.021 1.53515 222.44 0.954102 221.723 0.954102Z" fill="url(#paint0_linear_535_1171)" stroke="#BEBBBD" stroke-width="0.389344" stroke-linejoin="round"/>
<path d="M203.982 8.17567L203.528 9.18069H197.392L197.764 8.17567H203.982ZM203.105 10.0985L202.605 11.1265H197.392L197.764 10.0985H203.105ZM205.175 5.66541L204.441 7.2349C204.318 7.14923 204.17 7.05592 203.996 6.95496C203.824 6.85094 203.627 6.76375 203.404 6.69338C203.183 6.61995 202.939 6.58324 202.669 6.58324C202.244 6.58324 201.874 6.69032 201.559 6.90448C201.244 7.11864 200.999 7.45212 200.825 7.90491C200.653 8.3577 200.568 8.93899 200.568 9.64878C200.568 10.3647 200.653 10.9475 200.825 11.3972C200.999 11.8439 201.244 12.1728 201.559 12.3839C201.874 12.5919 202.244 12.696 202.669 12.696C202.939 12.696 203.183 12.6608 203.404 12.5904C203.624 12.52 203.817 12.4359 203.982 12.338C204.15 12.2401 204.291 12.1499 204.404 12.0672L205.148 13.6367C204.814 13.9121 204.436 14.1201 204.014 14.2609C203.592 14.3985 203.144 14.4674 202.669 14.4674C201.868 14.4674 201.158 14.2777 200.54 13.8983C199.925 13.5159 199.443 12.9667 199.095 12.2508C198.746 11.5319 198.571 10.6645 198.571 9.64878C198.571 8.63611 198.746 7.76877 199.095 7.04674C199.443 6.32472 199.925 5.77249 200.54 5.39007C201.158 5.00458 201.868 4.81184 202.669 4.81184C203.162 4.81184 203.618 4.88526 204.037 5.03212C204.456 5.17897 204.835 5.39007 205.175 5.66541Z" fill="#EF9C12"/>
<path d="M203.772 10.2285V7.63275H204.797C204.993 7.63275 205.161 7.67035 205.3 7.74556C205.438 7.81992 205.544 7.92342 205.617 8.05609C205.69 8.1879 205.727 8.34 205.727 8.51237C205.727 8.68475 205.69 8.83684 205.615 8.96866C205.541 9.10047 205.433 9.20314 205.292 9.27665C205.152 9.35016 204.982 9.38692 204.783 9.38692H204.13V8.94711H204.694C204.8 8.94711 204.887 8.92894 204.955 8.89261C205.024 8.85543 205.076 8.80431 205.11 8.73925C205.144 8.67334 205.162 8.59771 205.162 8.51237C205.162 8.42618 205.144 8.35098 205.11 8.28676C205.076 8.2217 205.024 8.17142 204.955 8.13594C204.886 8.0996 204.798 8.08143 204.691 8.08143H204.321V10.2285H203.772ZM206.083 10.2285V7.63275H207.107C207.304 7.63275 207.471 7.66782 207.609 7.73795C207.749 7.80724 207.855 7.90568 207.928 8.03327C208.001 8.16002 208.038 8.30916 208.038 8.48069C208.038 8.65306 208.001 8.80135 207.926 8.92556C207.852 9.04893 207.744 9.14357 207.603 9.20948C207.463 9.27538 207.293 9.30834 207.094 9.30834H206.408V8.86726H207.005C207.11 8.86726 207.197 8.8529 207.266 8.82417C207.335 8.79544 207.387 8.75234 207.421 8.69489C207.455 8.63743 207.473 8.56603 207.473 8.48069C207.473 8.3945 207.455 8.32183 207.421 8.26268C207.387 8.20353 207.335 8.15875 207.265 8.12833C207.195 8.09707 207.108 8.08143 207.002 8.08143H206.632V10.2285H206.083ZM207.485 9.04724L208.13 10.2285H207.524L206.893 9.04724H207.485ZM208.426 10.2285V7.63275H210.175V8.08524H208.974V8.70376H210.085V9.15624H208.974V9.77603H210.18V10.2285H208.426ZM210.611 10.2285V7.63275H211.635C211.832 7.63275 212 7.67035 212.138 7.74556C212.277 7.81992 212.383 7.92342 212.455 8.05609C212.529 8.1879 212.566 8.34 212.566 8.51237C212.566 8.68475 212.528 8.83684 212.454 8.96866C212.38 9.10047 212.272 9.20314 212.131 9.27665C211.99 9.35016 211.821 9.38692 211.621 9.38692H210.968V8.94711H211.533C211.638 8.94711 211.725 8.92894 211.794 8.89261C211.863 8.85543 211.914 8.80431 211.948 8.73925C211.983 8.67334 212 8.59771 212 8.51237C212 8.42618 211.983 8.35098 211.948 8.28676C211.914 8.2217 211.863 8.17142 211.794 8.13594C211.724 8.0996 211.636 8.08143 211.53 8.08143H211.16V10.2285H210.611ZM213.07 10.2285H212.482L213.378 7.63275H214.085L214.98 10.2285H214.392L213.741 8.22593H213.721L213.07 10.2285ZM213.033 9.20821H214.422V9.63661H213.033V9.20821ZM214.875 7.63275H215.49L216.082 8.75065H216.107L216.699 7.63275H217.314L216.367 9.31087V10.2285H215.822V9.31087L214.875 7.63275ZM217.613 7.63275H218.29L219.005 9.37678H219.036L219.75 7.63275H220.427V10.2285H219.895V8.53899H219.873L219.202 10.2158H218.839L218.167 8.53265H218.146V10.2285H217.613V7.63275ZM220.879 10.2285V7.63275H222.629V8.08524H221.428V8.70376H222.539V9.15624H221.428V9.77603H222.634V10.2285H220.879ZM225.236 7.63275V10.2285H224.762L223.633 8.59476H223.614V10.2285H223.065V7.63275H223.546L224.667 9.26524H224.69V7.63275H225.236ZM225.591 8.08524V7.63275H227.722V8.08524H226.928V10.2285H226.385V8.08524H225.591Z" fill="black"/>
</g>
<g clip-path="url(#clip7_535_1171)">
<path d="M228.406 1.37109H241.921V17.5546H228.406V1.37109Z" fill="white"/>
<path d="M253.993 0.5H229.461C228.365 0.5 227.477 1.3685 227.477 2.441V16.559C227.477 17.6247 228.364 18.5 229.461 18.5H253.993C255.089 18.5 255.977 17.6247 255.977 16.559V2.441C255.977 1.36775 255.09 0.5 253.993 0.5ZM241.727 17.441H229.462C228.964 17.441 228.56 17.0457 228.56 16.559V2.441C228.56 1.95425 228.964 1.559 229.462 1.559H241.727V17.441Z" fill="#213E7A"/>
<path d="M245.526 10.0178C245.526 10.4776 245.299 10.7933 244.922 10.7933C244.589 10.7933 244.311 10.4776 244.311 10.0561C244.311 9.62409 244.556 9.30234 244.922 9.30234C245.31 9.30234 245.526 9.63459 245.526 10.0171V10.0178ZM243.313 12.6556H244.311V11.0873H244.323C244.512 11.4308 244.888 11.5583 245.238 11.5583C246.097 11.5583 246.558 10.8488 246.558 9.99534C246.558 9.29709 246.12 8.53809 245.321 8.53809C244.866 8.53809 244.444 8.72109 244.245 9.12534H244.233V8.60409H243.312L243.313 12.6556ZM247.921 10.5781C247.921 10.3006 248.188 10.1956 248.526 10.1956L248.947 10.2121C248.947 10.5503 248.709 10.8938 248.331 10.8938C248.099 10.8938 247.921 10.7768 247.921 10.5781ZM249.935 11.4923C249.895 11.2674 249.876 11.0391 249.88 10.8106V9.73584C249.88 8.85459 249.242 8.53884 248.504 8.53884C248.076 8.53884 247.705 8.59959 247.351 8.74359L247.367 9.41934C247.645 9.26409 247.966 9.20334 248.288 9.20334C248.649 9.20334 248.943 9.30834 248.948 9.70209C248.794 9.67653 248.638 9.66349 248.482 9.66309C247.95 9.66309 246.991 9.76884 246.991 10.6501C246.991 11.2763 247.5 11.5591 248.072 11.5591C248.482 11.5591 248.76 11.3978 248.987 11.0378H248.998L249.021 11.4923H249.935ZM250.383 12.6556C250.589 12.6998 250.794 12.7223 251.005 12.7223C251.92 12.7223 252.136 12.0181 252.419 11.2928L253.479 8.60484H252.481L251.887 10.4888H251.876L251.255 8.60484H250.18L251.349 11.5583C251.277 11.8133 251.089 11.9573 250.845 11.9573C250.706 11.9573 250.584 11.9408 250.452 11.8966L250.385 12.6556H250.383Z" fill="white"/>
<path d="M231.002 10.0236C231.002 9.6306 231.196 9.30359 231.567 9.30359C232.016 9.30359 232.205 9.66359 232.205 9.98534C232.205 10.4293 231.922 10.7278 231.567 10.7278C231.268 10.7278 231.002 10.4728 231.002 10.0236ZM233.17 8.60534H232.265V9.12584H232.254C232.043 8.77109 231.699 8.53859 231.272 8.53859C230.374 8.53859 229.969 9.18135 229.969 10.0401C229.969 10.8936 230.462 11.4921 231.256 11.4921C231.655 11.4921 231.988 11.3376 232.226 10.9986H232.238V11.1538C232.238 11.7193 231.927 11.9908 231.35 11.9908C230.934 11.9908 230.679 11.9023 230.375 11.7523L230.324 12.5391C230.558 12.6216 230.951 12.7221 231.428 12.7221C232.593 12.7221 233.17 12.3396 233.17 11.1538V8.60534ZM234.857 7.40234H233.859V8.1336H234.857V7.40234ZM233.859 11.4921H234.857V8.60459H233.859V11.4921ZM237.637 8.5716C237.525 8.55164 237.412 8.5406 237.299 8.53859C236.866 8.53859 236.616 8.77109 236.444 9.13709H236.433V8.60534H235.523V11.4928H236.522V10.2741C236.522 9.7086 236.783 9.37034 237.248 9.37034C237.365 9.37034 237.476 9.37034 237.587 9.40334L237.637 8.5716ZM239.356 10.8606C238.895 10.8606 238.707 10.4781 238.707 10.0513C238.707 9.61859 238.895 9.23684 239.356 9.23684C239.816 9.23684 240.005 9.61934 240.005 10.0513C240.005 10.4781 239.816 10.8606 239.356 10.8606ZM239.356 11.5588C240.31 11.5588 241.036 11.0046 241.036 10.0513C241.036 9.09209 240.309 8.53859 239.356 8.53859C238.402 8.53859 237.675 9.09284 237.675 10.0513C237.675 11.0046 238.402 11.5588 239.356 11.5588Z" fill="#EA2127"/>
</g>
<defs>
<linearGradient id="paint0_linear_535_1171" x1="209.225" y1="0.954102" x2="209.225" y2="18.0463" gradientUnits="userSpaceOnUse">
<stop stop-color="white"/>
<stop offset="1" stop-color="#E6E6E6"/>
</linearGradient>
<clipPath id="clip0_535_1171">
<rect width="28.5" height="18" fill="white" transform="translate(0 0.5)"/>
</clipPath>
<clipPath id="clip1_535_1171">
<rect width="28.5" height="18" fill="white" transform="translate(32.5 0.5)"/>
</clipPath>
<clipPath id="clip2_535_1171">
<rect width="28.5" height="18" fill="white" transform="translate(65 0.5)"/>
</clipPath>
<clipPath id="clip3_535_1171">
<rect width="28.5" height="18" fill="white" transform="translate(97.5 0.5)"/>
</clipPath>
<clipPath id="clip4_535_1171">
<rect width="28.5" height="18" fill="white" transform="translate(130 0.5)"/>
</clipPath>
<clipPath id="clip5_535_1171">
<rect width="28.5" height="18" fill="white" transform="translate(162.5 0.5)"/>
</clipPath>
<clipPath id="clip6_535_1171">
<rect width="28.5" height="18" fill="white" transform="translate(195 0.5)"/>
</clipPath>
<clipPath id="clip7_535_1171">
<rect width="28.5" height="18" fill="white" transform="translate(227.5 0.5)"/>
</clipPath>
</defs>
</svg>
