<svg width="14" height="14" viewBox="0 0 14 14" fill="none" xmlns="http://www.w3.org/2000/svg">
<rect x="0.4375" y="0.4375" width="13.125" height="13.125" rx="6.5625" stroke="white" stroke-width="0.875"/>
<path d="M5.58238 8.46259L4.17874 7.05895C4.14203 7.02179 4.09832 6.9923 4.05013 6.97217C4.00194 6.95203 3.95024 6.94167 3.89801 6.94167C3.84578 6.94167 3.79408 6.95203 3.74589 6.97217C3.6977 6.9923 3.65398 7.02179 3.61728 7.05895C3.58013 7.09565 3.55063 7.13937 3.5305 7.18755C3.51037 7.23574 3.5 7.28745 3.5 7.33968C3.5 7.3919 3.51037 7.44361 3.5305 7.4918C3.55063 7.53999 3.58013 7.5837 3.61728 7.62041L5.29765 9.30077C5.45405 9.45718 5.70671 9.45718 5.86311 9.30077L10.1142 5.05374C10.1513 5.01703 10.1808 4.97332 10.2009 4.92513C10.2211 4.87694 10.2314 4.82524 10.2314 4.77301C10.2314 4.72078 10.2211 4.66908 10.2009 4.62089C10.1808 4.5727 10.1513 4.52898 10.1142 4.49228C10.0775 4.45513 10.0337 4.42563 9.98555 4.4055C9.93736 4.38537 9.88565 4.375 9.83343 4.375C9.7812 4.375 9.72949 4.38537 9.68131 4.4055C9.63312 4.42563 9.5894 4.45513 9.5527 4.49228L5.58238 8.46259Z" fill="white"/>
</svg>
