<svg width="16" height="16" viewBox="0 0 16 16" fill="none" xmlns="http://www.w3.org/2000/svg">
<path d="M14.0026 5.00001L11.3359 6.33334M11.3359 6.33334L11.0026 6.50001L8.0026 8.00001M11.3359 6.33334V8.66668M11.3359 6.33334L5.0026 3.00001M8.0026 8.00001L2.0026 5.00001M8.0026 8.00001V14.3333M10.3879 2.25468L11.7213 2.95468C13.1553 3.70734 13.8726 4.08334 14.2713 4.76001C14.6693 5.43601 14.6693 6.27801 14.6693 7.96134V8.03934C14.6693 9.72201 14.6693 10.564 14.2713 11.24C13.8726 11.9167 13.1553 12.2933 11.7213 13.046L10.3879 13.7453C9.21727 14.3593 8.63194 14.6667 8.0026 14.6667C7.37327 14.6667 6.78794 14.36 5.61727 13.7453L4.28394 13.0453C2.84994 12.2927 2.1326 11.9167 1.73394 11.24C1.33594 10.564 1.33594 9.72201 1.33594 8.04001V7.96201C1.33594 6.27868 1.33594 5.43668 1.73394 4.76068C2.1326 4.08401 2.84994 3.70734 4.28394 2.95534L5.61727 2.25534C6.78794 1.64068 7.37327 1.33334 8.0026 1.33334C8.63194 1.33334 9.21727 1.64001 10.3879 2.25468Z" stroke="white" stroke-linecap="round"/>
</svg>
