<svg width="512" height="357" viewBox="0 0 512 357" fill="none" xmlns="http://www.w3.org/2000/svg">
<path d="M63.4946 83.8513C63.641 83.6217 63.8648 83.4849 64.1661 83.4409C64.9967 83.4239 65.8751 83.897 66.8014 84.8601C67.266 85.4172 67.5211 85.8841 67.5666 86.2609C67.5697 86.4119 67.5527 86.5067 67.5158 86.5452L67.4614 86.6596C87.4642 84.0216 102.053 82.6087 111.228 82.4209C115.985 82.3235 119.389 82.556 121.44 83.1183C122.58 83.435 123.443 84.0972 124.03 85.105C124.188 85.4039 124.269 85.6667 124.273 85.8932C124.205 86.2723 123.983 86.4846 123.606 86.5301C123.493 86.5324 123.304 86.4985 123.038 86.4284C121.177 85.9377 118.057 85.7372 113.677 85.8268C103.974 86.0255 88.0296 87.655 65.8447 90.7154C52.8318 122.974 44.4638 145.96 40.7407 159.672C39.5466 164.078 38.9678 167.168 39.0041 168.942C39.0056 169.018 39.0072 169.093 39.0087 169.169C39.048 169.244 39.0681 169.3 39.0688 169.338C39.0011 169.717 38.7788 169.929 38.402 169.974C37.4203 169.995 36.5038 169.503 35.6523 168.501C35.1876 167.944 34.9495 167.382 34.9379 166.816C34.8034 160.246 42.0226 138.342 56.5956 101.103C57.8883 97.8283 59.1634 94.6105 60.4207 91.4497C55.1102 92.2005 49.537 93.0323 43.7011 93.9449C37.9022 94.8191 32.7628 95.6231 28.283 96.3569C23.8409 97.0899 19.7757 97.7775 16.0872 98.4196C12.3979 99.0239 9.537 99.498 7.50437 99.8418L4.45542 100.357L4.22889 100.362C3.28499 100.381 2.34838 99.834 1.41905 98.7199C1.0692 98.236 0.87192 97.8245 0.827208 97.4855C0.896536 97.1819 1.08145 96.9893 1.38195 96.9076C1.38195 96.9076 1.94674 96.8205 3.07633 96.6463C24.9445 92.8747 44.5981 89.7906 62.0374 87.3939L63.4946 83.8513ZM107.935 130.534C108.121 130.417 108.29 130.357 108.441 130.354C109.309 130.336 110.17 130.866 111.023 131.944C111.411 132.427 111.608 132.838 111.615 133.178C111.582 133.443 111.492 133.634 111.343 133.75C110.971 134.022 110.338 134.47 109.444 135.092C104.343 138.672 100.404 140.905 97.6268 141.793C96.3508 142.197 95.1842 142.41 94.1271 142.431C92.163 142.434 90.5263 141.825 89.2171 140.605C87.4833 138.941 86.4603 136.016 86.1479 131.83C86.1456 131.716 86.0916 130.924 85.986 129.453C83.3393 131.17 79.7994 135.378 75.3662 142.079C71.5185 147.861 69.4114 151.02 69.0446 151.557C68.5299 152.247 68.0696 152.823 67.6636 153.285C67.2906 153.519 66.9154 153.64 66.5378 153.648C65.4052 153.671 64.4104 153.049 63.5535 151.782C63.125 151.149 62.9046 150.53 62.8922 149.926C62.8497 147.85 64.5514 141.488 67.9973 130.842C71.481 120.194 74.9751 110.056 78.4796 100.428L83.6797 85.9877C83.8261 85.758 84.05 85.6213 84.3512 85.5773C85.1819 85.5603 86.0792 86.033 87.0432 86.9953C87.6612 87.6625 87.8993 88.2242 87.7576 88.6804L77.7976 116.93C73.8039 128.494 70.9061 137.316 69.1042 143.397C69.4709 142.861 70.0939 141.922 70.9729 140.582C75.5155 133.69 78.8432 129.26 80.9558 127.29C81.2902 127.019 81.6061 126.767 81.9035 126.534C82.6471 125.952 83.3586 125.654 84.0382 125.641C84.5298 125.668 85.1189 125.845 85.8055 126.171C88.0971 127.408 89.4792 129.42 89.9517 132.205C90.0372 132.694 90.1093 133.448 90.168 134.467C90.4016 136.653 90.7357 138.214 91.1703 139.149L91.3969 139.144C94.002 139.091 99.5146 136.221 107.935 130.534ZM110.817 139.88C110.219 140.194 109.934 141.05 109.963 142.447C110.028 143.768 110.421 144.553 111.144 144.803C111.866 145.014 112.643 145.112 113.473 145.095C118.23 144.997 124.849 141.708 133.328 135.227C135.522 133.557 137.453 131.95 139.122 130.405C139.27 130.289 139.42 130.229 139.571 130.226C140.326 130.211 141.112 130.761 141.928 131.878C142.356 132.473 142.574 132.979 142.582 133.394C142.549 133.621 142.477 133.812 142.367 133.965C141.48 134.89 139.511 136.497 136.46 138.788C128.016 145.118 121.17 148.356 115.922 148.501C115.243 148.515 114.752 148.506 114.449 148.474C109.641 147.931 106.934 145.795 106.329 142.068C106.245 141.654 106.199 141.24 106.19 140.825C106.12 137.389 107.518 133.715 110.384 129.804C112.993 126.238 115.741 123.953 118.629 122.949C119.267 122.748 119.869 122.622 120.434 122.573L120.661 122.568C122.435 122.532 123.961 123.275 125.239 124.797C126.053 125.8 126.47 126.83 126.492 127.888C126.47 128.644 126.295 129.346 125.969 129.995C125.605 130.682 125.034 131.393 124.256 132.126C123.515 132.859 122.679 133.537 121.748 134.16C120.854 134.783 119.884 135.388 118.839 135.976C117.831 136.564 116.86 137.093 115.925 137.566C114.991 138.038 114.13 138.452 113.344 138.808C112.596 139.164 111.997 139.421 111.547 139.582L110.817 139.88ZM113.86 133.529C118.903 130.819 121.724 128.382 122.322 126.217C120.108 126.942 117.656 128.918 114.964 132.146C114.558 132.608 114.19 133.069 113.86 133.529ZM178.096 127.398C178.98 128.135 179.445 128.711 179.492 129.126C179.497 129.39 179.144 129.699 178.434 130.054C178.023 130.251 177.743 130.408 177.594 130.524C178.239 132.513 180.003 133.799 182.885 134.382C184.34 131.633 185.046 129.239 185.005 127.2C184.988 126.407 184.843 125.787 184.57 125.339C184.454 125.228 184.227 125.176 183.887 125.183C182.188 125.218 180.61 125.647 179.154 126.47C178.669 126.782 178.317 127.091 178.096 127.398ZM173.404 127.89C173.402 127.815 173.381 127.702 173.34 127.552C173.338 127.439 173.336 127.344 173.335 127.269C173.288 125.003 174.502 123.411 176.976 122.492C177.988 122.093 179.079 121.882 180.249 121.858C182.968 121.84 185.079 122.533 186.581 123.938C188.16 125.417 188.974 127.364 189.023 129.78C189.053 131.215 188.762 132.694 188.151 134.218C192.438 133.299 196.16 131.504 199.316 128.833C199.464 128.717 199.633 128.657 199.822 128.653C200.615 128.637 201.418 129.149 202.233 130.19C202.621 130.673 202.837 131.103 202.883 131.48C202.849 131.707 202.759 131.879 202.61 131.995C198.005 135.867 193.136 137.855 188.001 137.96C187.284 137.975 186.755 137.967 186.414 137.936C183.129 143.518 179.202 146.355 174.634 146.449C172.67 146.489 171.095 146.106 169.908 145.299C169.83 145.188 169.772 145.113 169.733 145.076C167.779 143.719 166.779 141.945 166.735 139.755C166.674 136.772 168.156 133.55 171.183 130.089C171.921 129.243 172.661 128.51 173.404 127.89ZM175.594 132.492C173.046 135.339 171.477 138.034 170.887 140.577C170.82 140.993 170.771 141.372 170.741 141.713C170.717 142.393 170.726 142.827 170.767 143.015C171.301 143.231 171.85 143.333 172.417 143.322C174.758 143.274 177.275 141.692 179.968 138.578C180.485 137.963 180.963 137.349 181.404 136.735C179.04 135.688 177.104 134.274 175.594 132.492ZM229.595 128.667C230.114 128.165 230.874 128.414 231.877 129.413C232.879 130.412 233.198 131.199 232.832 131.773C232.757 131.812 232.72 131.851 232.721 131.889C232.424 132.159 229.951 134.967 225.301 140.313C217.181 149.582 211.544 154.683 208.391 155.616C207.676 155.782 207.072 155.794 206.578 155.653C205.323 155.226 204.287 154.454 203.471 153.337C201.993 151.215 203.489 145.877 207.959 137.325C208.286 136.676 208.795 135.721 209.487 134.461C210.396 132.742 210.996 131.578 211.285 130.968C206.67 132.46 203.08 132.363 200.515 130.678C198.103 129.103 197.149 126.781 197.652 123.711C198.019 121.324 199.058 119.471 200.768 118.152C201.326 117.725 201.886 117.43 202.45 117.268C203.988 116.783 205.491 117.281 206.956 118.762C207.767 119.614 208.295 120.51 208.541 121.449C208.878 123.142 208.468 125.265 207.312 127.82C207.612 127.738 208.156 127.538 208.942 127.22C210.816 126.501 212.018 126.137 212.546 126.126C214.324 126.241 215.589 127.14 216.341 128.825C216.779 129.949 215.527 133.374 212.585 139.1C209.571 145.016 207.795 148.679 207.258 150.087C206.973 150.924 206.779 151.608 206.676 152.139C209.182 150.916 214.071 146.189 221.344 137.957C226.105 132.534 228.856 129.437 229.595 128.667ZM201.489 128.449C203.208 125.694 204.217 123.331 204.517 121.361C203.663 122.096 202.929 123.169 202.316 124.579C201.918 125.418 201.618 126.444 201.416 127.657C201.387 128.073 201.411 128.337 201.489 128.449ZM235.346 120.39C235.493 120.16 235.698 120.024 235.961 119.981C236.792 119.964 237.69 120.455 238.654 121.456C239.118 121.975 239.373 122.423 239.418 122.8C239.421 122.913 239.385 123.027 239.312 123.142C236.169 130.156 234.468 135.592 234.207 139.45C234.176 139.791 234.164 140.112 234.17 140.414C234.181 140.943 234.267 141.489 234.43 142.052L234.543 142.05C237.677 141.986 242.256 138.738 248.282 132.307C249.833 130.613 251.162 129.075 252.266 127.693C252.377 127.539 252.526 127.461 252.715 127.457C253.357 127.444 254.048 127.996 254.788 129.114C255.178 129.71 255.378 130.235 255.387 130.688C255.353 130.878 255.282 131.087 255.173 131.316C247.732 140.533 241.691 145.265 237.05 145.511C236.635 145.52 236.105 145.455 235.46 145.317C233.637 144.826 232.218 143.778 231.203 142.175C230.54 141.131 230.191 139.778 230.157 138.117C230.075 134.115 231.805 128.206 235.346 120.39ZM241.581 117.713C241.433 117.905 241.228 118.022 240.965 118.065C240.134 118.082 239.255 117.609 238.329 116.646C237.865 116.089 237.609 115.622 237.564 115.246C237.562 115.132 237.597 114.999 237.669 114.847L242.216 107.218C242.363 107.026 242.587 106.927 242.889 106.921C243.758 106.903 244.655 107.395 245.582 108.396C246.008 108.878 246.243 109.308 246.289 109.684C246.291 109.798 246.256 109.931 246.184 110.083L241.581 117.713ZM269.478 120.201C270.085 120.34 270.734 120.667 271.425 121.181C271.939 120.453 272.525 119.553 273.183 118.482C273.914 117.334 275.088 117.48 276.704 118.92C277.167 119.364 277.534 119.772 277.806 120.144C278.78 121.597 278.272 126.31 276.282 134.283C276.142 134.815 276.001 135.328 275.86 135.821C279.29 133.598 282.758 131.412 286.264 129.263C287.869 128.286 289.006 127.583 289.677 127.153C290.237 126.802 291.072 127.03 292.184 127.839C292.3 127.949 292.396 128.042 292.473 128.116C293.436 129.003 293.771 129.714 293.48 130.248C293.406 130.325 293.351 130.383 293.314 130.422C292.494 130.967 291.356 131.67 289.901 132.531C283.187 136.672 277.837 140.106 273.851 142.831C269.671 156.364 265.132 167.146 260.235 175.178C258.592 177.932 256.976 180.174 255.387 181.907C251.322 186.296 247.366 186.792 243.52 183.396C232.376 174.106 240.51 160.02 267.924 141.14C268.333 140.829 269.003 140.362 269.935 139.739C271.672 134.189 272.904 129.782 273.63 126.519C268.672 133.419 264.506 137.489 261.132 138.729C257.795 139.931 255.381 139.149 253.889 136.385C253.573 135.711 253.312 134.98 253.107 134.191C252.203 130.583 253.288 127.332 256.364 124.436C259.069 121.888 262.344 120.442 266.19 120.099C267.36 120.037 268.456 120.071 269.478 120.201ZM269.829 123.48C266.767 123.392 263.862 124.452 261.112 126.662C258.289 128.986 256.906 131.564 256.964 134.395C256.975 134.924 257.042 135.432 257.165 135.921C257.451 136.973 260.935 133.691 267.616 126.075C268.87 124.614 269.608 123.749 269.829 123.48ZM251.586 178.868C256.351 173.634 261.364 163.862 266.623 149.552C266.91 148.79 267.178 148.048 267.427 147.326C254.738 156.651 246.855 164.593 243.779 171.153C241.682 175.728 242.171 179.306 245.245 181.888L245.476 182.109C246.658 182.652 248.251 182.015 250.253 180.199C250.698 179.774 251.142 179.331 251.586 178.868ZM295.321 119.162C295.467 118.933 295.672 118.796 295.936 118.753C296.766 118.736 297.664 119.228 298.629 120.228C299.093 120.747 299.347 121.195 299.393 121.572C299.395 121.685 299.36 121.799 299.287 121.914C296.144 128.928 294.442 134.365 294.181 138.223C294.151 138.563 294.138 138.885 294.144 139.187C294.155 139.715 294.242 140.261 294.405 140.824L294.518 140.822C297.652 140.758 302.231 137.51 308.256 131.079C309.808 129.385 311.136 127.847 312.241 126.465C312.351 126.311 312.501 126.233 312.689 126.229C313.331 126.216 314.022 126.768 314.763 127.886C315.153 128.483 315.353 129.007 315.362 129.46C315.328 129.65 315.257 129.859 315.148 130.088C307.707 139.306 301.666 144.037 297.025 144.283C296.61 144.292 296.079 144.227 295.435 144.089C293.611 143.598 292.192 142.55 291.178 140.947C290.514 139.903 290.165 138.55 290.131 136.889C290.049 132.887 291.779 126.978 295.321 119.162ZM301.555 116.485C301.408 116.677 301.203 116.795 300.939 116.838C300.108 116.855 299.23 116.382 298.304 115.419C297.839 114.862 297.584 114.395 297.539 114.018C297.536 113.905 297.571 113.772 297.644 113.619L302.19 105.991C302.337 105.799 302.562 105.7 302.864 105.693C303.732 105.676 304.63 106.167 305.557 107.168C305.982 107.65 306.218 108.08 306.263 108.457C306.266 108.57 306.231 108.703 306.158 108.855L301.555 116.485ZM317.609 118.876C317.757 118.684 317.962 118.567 318.225 118.524C319.056 118.507 319.954 118.998 320.919 119.998C321.382 120.517 321.637 120.965 321.683 121.342C321.685 121.456 321.649 121.57 321.576 121.684C321.54 121.761 319.656 125.652 315.923 133.358C323.065 126.149 327.928 121.97 330.51 120.822C330.81 120.702 331.073 120.602 331.298 120.522C331.786 120.399 332.219 120.333 332.597 120.326C334.372 120.327 335.878 121.033 337.116 122.443C338.122 123.593 338.653 125.546 338.709 128.303C338.727 129.171 338.567 131.516 338.23 135.338C338.201 135.754 338.188 136.056 338.192 136.245C338.196 136.472 338.237 136.622 338.314 136.696C338.391 136.732 338.448 136.75 338.485 136.749C339.807 136.722 344.408 133.625 352.29 127.458C353.33 126.643 353.999 126.101 354.296 125.83C354.408 125.753 354.539 125.712 354.69 125.709C355.37 125.695 356.099 126.285 356.879 127.477C357.27 128.111 357.47 128.655 357.479 129.108C357.447 129.373 357.357 129.602 357.21 129.793C353.498 132.967 350.896 135.06 349.406 136.072C345.941 138.409 343.039 139.602 340.698 139.65C339.338 139.64 338.141 139.287 337.107 138.59C335.303 137.192 334.37 134.983 334.308 131.962C334.29 131.094 334.339 129.79 334.455 128.05C334.572 126.423 334.624 125.251 334.609 124.534L334.596 123.911C332.38 124.523 328.053 128.067 321.613 134.545C316.579 139.596 313.673 142.47 312.894 143.165C311.632 144.249 310.775 144.814 310.323 144.861C308.167 144.716 307.013 143.72 306.862 141.872C306.846 141.08 310.428 133.414 317.609 118.876ZM372.56 122.68C372.271 123.328 371.457 123.232 370.118 122.39C369.888 122.244 369.696 122.097 369.542 121.949C366.614 122.84 363.985 124.499 361.655 126.926C359.622 129.083 358.607 131.181 358.611 133.221C358.62 133.674 358.686 134.088 358.807 134.463C360.239 134.321 362.218 133.223 364.745 131.169C367.271 129.115 369.107 127.472 370.253 126.24C371.436 125.007 372.49 123.872 373.413 122.833L373.468 122.775C373.726 122.468 374.044 122.31 374.422 122.302C375.328 122.284 376.209 122.889 377.065 124.118C377.376 124.565 377.535 124.939 377.541 125.241C377.506 125.355 377.47 125.432 377.433 125.47C377.24 127.136 377.156 128.573 377.181 129.781C377.204 130.914 377.357 131.931 377.64 132.831C377.876 133.28 378.296 133.517 378.901 133.542C381.393 133.491 386.981 130.638 395.667 124.984C395.815 124.867 395.984 124.807 396.173 124.803C397.003 124.786 397.845 125.298 398.697 126.338C399.085 126.859 399.302 127.308 399.348 127.684C399.316 127.949 399.206 128.141 399.02 128.258C398.573 128.569 397.846 129.056 396.84 129.719C391.586 133.226 387.646 135.403 385.019 136.25C383.706 136.692 382.502 136.924 381.407 136.947C380.954 136.956 380.367 136.893 379.647 136.756C376.079 135.923 373.956 133.681 373.277 130.031C367.944 135.202 363.843 137.835 360.974 137.932L360.464 137.942C358.534 137.755 356.946 136.749 355.7 134.924C355.31 134.327 355.014 133.71 354.812 133.072C354.649 132.509 354.561 131.887 354.547 131.208C354.483 128.074 356.253 125.035 359.856 122.091C361.974 120.385 364.122 119.189 366.299 118.503C366.824 118.341 367.389 118.254 367.993 118.241C369.579 118.247 370.895 118.843 371.939 120.03C372.676 120.959 372.883 121.843 372.56 122.68ZM420.782 124.413C420.969 124.296 421.156 124.235 421.345 124.231C422.138 124.215 422.942 124.746 423.757 125.825C424.183 126.345 424.4 126.794 424.408 127.171C424.376 127.474 424.324 127.664 424.25 127.741C422.428 129.138 418.437 133.469 412.278 140.734C405.898 148.306 401.688 152.981 399.647 154.761C398.386 155.882 397.453 156.467 396.85 156.518L396.454 156.526C393.205 156.517 391.521 154.493 391.4 150.453C391.256 143.431 397.214 124.461 409.272 93.5434C409.629 92.554 410.078 91.3928 410.617 90.0598C412.987 84.0433 414.331 80.5219 414.65 79.4956C414.796 79.2282 415.001 79.0918 415.265 79.0864C416.133 79.0686 417.03 79.5224 417.956 80.4477C418.42 80.967 418.675 81.434 418.721 81.8485C418.737 82.6414 417.899 85.057 416.206 89.0955C415.558 90.6196 415.035 91.8579 414.639 92.8103C405.598 116.112 399.832 132.453 397.343 141.833C396.117 146.542 395.509 150.067 395.519 152.409C398.089 150.619 402.193 146.304 407.832 139.465C413.656 132.396 417.38 127.995 419.007 126.262C419.635 125.569 420.227 124.953 420.782 124.413Z" fill="white"/>
<path d="M415.212 181.566C414.559 180.924 414.55 179.874 415.193 179.221C415.835 178.568 416.885 178.559 417.538 179.202L415.212 181.566ZM435.745 356.012C434.856 356.234 433.956 355.693 433.735 354.804L430.126 340.322C429.904 339.433 430.445 338.533 431.334 338.311C432.222 338.09 433.122 338.631 433.344 339.52L436.552 352.393L449.426 349.185C450.314 348.963 451.214 349.504 451.436 350.393C451.657 351.282 451.116 352.182 450.228 352.403L435.745 356.012ZM417.538 179.202C443.732 204.965 484.256 276.239 436.765 355.258L433.923 353.549C480.326 276.34 440.787 206.721 415.212 181.566L417.538 179.202Z" fill="white"/>
</svg>
